<?xml version="1.0" encoding="UTF-8"?>
<!-- Generator: https://ezgif.com/png-to-svg -->
<svg version="1.1" xmlns="http://www.w3.org/2000/svg" width="2000" height="1001">$
    <path d="M0 0 C3.87 0.01 7.74 -0 11.61 -0.01 C19.14 -0.02 26.66 -0.02 34.19 -0 C43 0.02 51.82 0.01 60.63 0.01 C76.39 0 92.15 0.02 107.9 0.04 C123.1 0.07 138.29 0.07 153.49 0.06 C170.14 0.05 186.8 0.05 203.46 0.06 C205.24 0.06 207.03 0.07 208.81 0.07 C209.69 0.07 210.57 0.07 211.47 0.07 C217.58 0.07 223.68 0.07 229.79 0.07 C237.25 0.06 244.72 0.07 252.19 0.09 C255.98 0.1 259.76 0.1 263.55 0.1 C293.99 0.04 324.09 2.47 354.13 7.51 C355.13 7.68 356.14 7.84 357.18 8.01 C396.14 14.71 432.62 30.71 464.13 54.51 C464.96 55.13 465.79 55.74 466.64 56.38 C472.19 60.65 477.32 65.36 482.44 70.13 C483.12 70.77 483.81 71.4 484.51 72.05 C488.36 75.68 491.8 79.4 495.13 83.51 C496.06 84.42 496.98 85.32 497.94 86.26 C500.13 88.51 500.13 88.51 500.13 90.51 C501.12 90.84 502.11 91.17 503.13 91.51 C503.83 92.82 504.49 94.16 505.13 95.51 C505.8 96.15 505.8 96.15 506.48 96.81 C510.04 100.47 512.46 105.17 515.13 109.51 C515.56 110.19 515.99 110.87 516.44 111.57 C517.98 114.1 519.08 116.19 519.53 119.13 C520.16 122.66 521.2 125.76 522.4 129.13 C529.42 148.84 533.14 169.08 535.94 189.76 C536.05 190.53 536.15 191.31 536.26 192.11 C537.48 201.18 538.41 210.22 538.89 219.36 C539.05 222.4 539.05 222.4 539.64 224.87 C540.15 227.61 540.25 230.11 540.24 232.9 C540.24 234.51 540.24 234.51 540.24 236.14 C540.23 237.88 540.23 237.88 540.22 239.66 C540.21 240.88 540.21 242.11 540.21 243.37 C540.15 257.49 539.97 271.6 539.76 285.71 C539.7 289.47 539.65 293.22 539.6 296.98 C539.56 299.91 539.52 302.84 539.48 305.76 C539.46 307.15 539.44 308.54 539.42 309.93 C539.4 311.84 539.37 313.75 539.33 315.67 C539.31 317.29 539.31 317.29 539.29 318.95 C539.13 321.51 539.13 321.51 538.13 323.51 C537.47 323.51 536.81 323.51 536.13 323.51 C536.03 324.04 535.92 324.58 535.82 325.13 C534.95 328.13 533.57 330.75 532.13 333.51 C531.47 333.51 530.81 333.51 530.13 333.51 C530.13 334.5 530.13 335.49 530.13 336.51 C529.47 336.51 528.81 336.51 528.13 336.51 C528.13 337.5 528.13 338.49 528.13 339.51 C526.82 340.86 525.48 342.2 524.13 343.51 C523.8 344.5 523.47 345.49 523.13 346.51 C522.47 346.51 521.81 346.51 521.13 346.51 C521.13 347.5 521.13 348.49 521.13 349.51 C520.47 349.51 519.81 349.51 519.13 349.51 C518.98 350.11 518.84 350.7 518.69 351.32 C518.24 353.07 517.7 354.8 517.13 356.51 C516.47 356.51 515.81 356.51 515.13 356.51 C514.85 357.07 514.58 357.63 514.29 358.21 C513.09 360.59 511.81 362.93 510.5 365.26 C510.06 366.06 509.61 366.86 509.15 367.68 C508.81 368.28 508.48 368.89 508.13 369.51 C507.47 369.51 506.81 369.51 506.13 369.51 C506.13 370.5 506.13 371.49 506.13 372.51 C505.47 372.51 504.81 372.51 504.13 372.51 C503.98 373.11 503.84 373.7 503.69 374.32 C502.43 379.23 502.43 379.23 500.38 381.13 C497.19 384.5 495.26 388.42 493.13 392.51 C492.47 392.51 491.81 392.51 491.13 392.51 C491.13 393.5 491.13 394.49 491.13 395.51 C490.47 395.51 489.81 395.51 489.13 395.51 C488.98 396.11 488.84 396.7 488.69 397.32 C487.77 400.92 486.99 403.1 484.13 405.51 C483.47 405.51 482.81 405.51 482.13 405.51 C482.03 406.04 481.92 406.58 481.82 407.13 C480.95 410.13 479.57 412.75 478.13 415.51 C477.47 415.51 476.81 415.51 476.13 415.51 C476.13 416.5 476.13 417.49 476.13 418.51 C475.47 418.51 474.81 418.51 474.13 418.51 C473.8 419.83 473.47 421.15 473.13 422.51 C472.47 422.51 471.81 422.51 471.13 422.51 C470.98 423.13 470.84 423.75 470.69 424.38 C470.13 426.51 470.13 426.51 469.13 428.51 C468.47 428.51 467.81 428.51 467.13 428.51 C466.98 429.11 466.84 429.7 466.69 430.32 C466.24 432.07 465.7 433.8 465.13 435.51 C464.47 435.51 463.81 435.51 463.13 435.51 C463.13 436.5 463.13 437.49 463.13 438.51 C462.47 438.51 461.81 438.51 461.13 438.51 C461.13 439.5 461.13 440.49 461.13 441.51 C460.47 441.51 459.81 441.51 459.13 441.51 C458.8 442.83 458.47 444.15 458.13 445.51 C457.47 445.51 456.81 445.51 456.13 445.51 C456.13 446.5 456.13 447.49 456.13 448.51 C455.47 448.51 454.81 448.51 454.13 448.51 C454.13 449.5 454.13 450.49 454.13 451.51 C453.47 451.51 452.81 451.51 452.13 451.51 C451.98 452.11 451.84 452.7 451.69 453.32 C451.24 455.07 450.7 456.8 450.13 458.51 C449.47 458.51 448.81 458.51 448.13 458.51 C448.13 459.5 448.13 460.49 448.13 461.51 C447.47 461.51 446.81 461.51 446.13 461.51 C444.92 463.84 443.96 466 443.13 468.51 C442.47 468.51 441.81 468.51 441.13 468.51 C441.13 469.5 441.13 470.49 441.13 471.51 C440.47 471.51 439.81 471.51 439.13 471.51 C439.13 472.5 439.13 473.49 439.13 474.51 C438.47 474.51 437.81 474.51 437.13 474.51 C437.13 475.5 437.13 476.49 437.13 477.51 C436.47 477.51 435.81 477.51 435.13 477.51 C435.13 478.83 435.13 480.15 435.13 481.51 C434.47 482.17 433.81 482.83 433.13 483.51 C430.84 486.21 429.26 488.13 428.13 491.51 C427.47 491.51 426.81 491.51 426.13 491.51 C426.13 492.5 426.13 493.49 426.13 494.51 C425.47 494.51 424.81 494.51 424.13 494.51 C424.13 495.5 424.13 496.49 424.13 497.51 C423.47 497.51 422.81 497.51 422.13 497.51 C422.13 498.5 422.13 499.49 422.13 500.51 C421.47 500.51 420.81 500.51 420.13 500.51 C419.8 501.83 419.47 503.15 419.13 504.51 C418.47 504.51 417.81 504.51 417.13 504.51 C417.46 505.5 417.79 506.49 418.13 507.51 C417.17 508.41 417.17 508.41 416.19 509.32 C413.93 511.42 413.93 511.42 413.13 514.51 C412.47 514.51 411.81 514.51 411.13 514.51 C411.13 515.5 411.13 516.49 411.13 517.51 C410.47 517.51 409.81 517.51 409.13 517.51 C409.13 518.5 409.13 519.49 409.13 520.51 C408.47 520.51 407.81 520.51 407.13 520.51 C407.13 521.5 407.13 522.49 407.13 523.51 C406.47 523.51 405.81 523.51 405.13 523.51 C404.8 524.83 404.47 526.15 404.13 527.51 C403.47 527.51 402.81 527.51 402.13 527.51 C402.03 528.04 401.92 528.58 401.82 529.13 C400.95 532.13 399.57 534.75 398.13 537.51 C397.47 537.51 396.81 537.51 396.13 537.51 C396.13 538.5 396.13 539.49 396.13 540.51 C395.47 540.51 394.81 540.51 394.13 540.51 C394.13 541.5 394.13 542.49 394.13 543.51 C393.47 543.51 392.81 543.51 392.13 543.51 C390.92 545.84 389.96 548 389.13 550.51 C388.14 550.84 387.15 551.17 386.13 551.51 C384.58 548.06 383.88 545.37 383.89 541.59 C383.88 540.63 383.88 539.66 383.88 538.66 C383.88 537.6 383.89 536.55 383.89 535.46 C383.89 534.33 383.89 533.2 383.89 532.04 C383.89 528.25 383.9 524.46 383.92 520.67 C383.92 517.96 383.92 515.24 383.92 512.53 C383.92 506.68 383.93 500.83 383.95 494.99 C383.97 486.52 383.98 478.05 383.98 469.59 C383.99 455.84 384.01 442.08 384.03 428.33 C384.03 427.51 384.04 426.69 384.04 425.84 C384.04 425.02 384.04 424.19 384.04 423.34 C384.06 411.67 384.08 400 384.09 388.34 C384.1 387.51 384.1 386.69 384.1 385.85 C384.12 372.16 384.13 358.46 384.14 344.77 C384.15 336.33 384.16 327.88 384.18 319.44 C384.19 313.65 384.2 307.87 384.2 302.08 C384.21 298.74 384.21 295.4 384.22 292.07 C384.23 288.44 384.23 284.82 384.24 281.19 C384.24 279.63 384.24 279.63 384.25 278.03 C384.24 271.79 383.84 265.7 383.13 259.51 C382.99 257.74 382.84 255.98 382.71 254.21 C380.57 230.6 375.88 200.99 357.13 184.51 C327.34 162.39 289.24 163.35 253.73 163.36 C251.2 163.36 248.68 163.36 246.16 163.35 C240.05 163.34 233.95 163.34 227.84 163.34 C222.87 163.34 217.9 163.34 212.92 163.34 C198.76 163.33 184.6 163.32 170.44 163.32 C169.68 163.32 168.92 163.32 168.14 163.32 C167.37 163.32 166.61 163.32 165.83 163.32 C153.51 163.32 141.19 163.31 128.87 163.3 C116.16 163.29 103.45 163.28 90.74 163.28 C83.63 163.28 76.51 163.28 69.4 163.27 C62.71 163.26 56.01 163.26 49.31 163.26 C46.87 163.26 44.44 163.26 42 163.26 C-12.18 162.7 -12.18 162.7 -58.73 187.17 C-65.42 194.47 -69.58 202.21 -72.87 211.51 C-73.3 212.7 -73.73 213.89 -74.18 215.12 C-79.14 230.34 -78.56 245.98 -78.47 261.79 C-78.45 266 -78.46 270.21 -78.46 274.42 C-78.47 282.65 -78.45 290.88 -78.42 299.1 C-78.39 308.72 -78.38 318.34 -78.38 327.96 C-78.38 345.16 -78.35 362.36 -78.3 379.56 C-78.26 396.16 -78.23 412.77 -78.22 429.38 C-78.22 430.4 -78.22 431.42 -78.22 432.47 C-78.22 436.57 -78.21 440.68 -78.21 444.78 C-78.2 462.63 -78.17 480.48 -78.15 498.33 C-78.14 501.19 -78.14 504.05 -78.14 506.91 C-78.12 516.96 -78.11 527.01 -78.08 537.07 C-78.07 541.21 -78.06 545.36 -78.06 549.51 C-78.04 565.42 -77.94 581.33 -77.57 597.24 C-77.53 598.74 -77.5 600.24 -77.48 601.74 C-77.26 613.29 -75.57 623.58 -71.87 634.51 C-71.51 636.17 -71.16 637.83 -70.87 639.51 C-70.21 639.51 -69.55 639.51 -68.87 639.51 C-68.55 640.19 -68.24 640.86 -67.91 641.56 C-60.34 656.67 -47.58 665.94 -32 671.76 C-9.99 679.04 12.26 679.09 35.17 679.02 C39.85 679.01 44.54 679.02 49.22 679.03 C58.36 679.04 67.5 679.03 76.65 679.02 C87.32 679 97.98 679 108.65 679.01 C127.7 679.01 146.75 679 165.79 678.97 C184.23 678.95 202.68 678.94 221.12 678.95 C241.25 678.97 261.39 678.97 281.52 678.95 C283.67 678.95 285.82 678.95 287.97 678.95 C289.03 678.95 290.09 678.95 291.18 678.95 C298.6 678.94 306.02 678.94 313.44 678.95 C322.49 678.95 331.55 678.95 340.6 678.93 C345.21 678.92 349.82 678.91 354.43 678.92 C358.66 678.93 362.89 678.92 367.12 678.9 C368.64 678.9 370.16 678.9 371.68 678.91 C396.89 679.01 417.89 673.46 437.33 656.72 C439.38 654.62 439.38 654.62 439.4 651.73 C439.31 651 439.22 650.27 439.13 649.51 C440.12 649.51 441.11 649.51 442.13 649.51 C442.79 647.53 443.45 645.55 444.13 643.51 C444.79 643.51 445.45 643.51 446.13 643.51 C446.13 642.52 446.13 641.53 446.13 640.51 C446.79 640.51 447.45 640.51 448.13 640.51 C448.13 639.52 448.13 638.53 448.13 637.51 C448.79 637.51 449.45 637.51 450.13 637.51 C450.13 636.52 450.13 635.53 450.13 634.51 C450.79 634.51 451.45 634.51 452.13 634.51 C452.46 633.19 452.79 631.87 453.13 630.51 C453.79 630.51 454.45 630.51 455.13 630.51 C455.27 629.89 455.42 629.27 455.57 628.63 C456.13 626.51 456.13 626.51 457.13 624.51 C457.79 624.51 458.45 624.51 459.13 624.51 C459.13 623.19 459.13 621.87 459.13 620.51 C459.79 620.51 460.45 620.51 461.13 620.51 C461.13 619.52 461.13 618.53 461.13 617.51 C461.79 617.51 462.45 617.51 463.13 617.51 C463.13 616.52 463.13 615.53 463.13 614.51 C463.79 614.51 464.45 614.51 465.13 614.51 C465.13 613.52 465.13 612.53 465.13 611.51 C465.79 611.51 466.45 611.51 467.13 611.51 C467.46 610.19 467.79 608.87 468.13 607.51 C468.79 607.51 469.45 607.51 470.13 607.51 C470.27 606.89 470.42 606.27 470.57 605.63 C471.13 603.51 471.13 603.51 472.13 601.51 C472.79 601.51 473.45 601.51 474.13 601.51 C474.13 600.19 474.13 598.87 474.13 597.51 C474.79 597.51 475.45 597.51 476.13 597.51 C476.13 596.52 476.13 595.53 476.13 594.51 C476.79 594.51 477.45 594.51 478.13 594.51 C478.13 593.52 478.13 592.53 478.13 591.51 C479.44 590.15 480.78 588.82 482.13 587.51 C482.46 586.52 482.79 585.53 483.13 584.51 C483.79 584.51 484.45 584.51 485.13 584.51 C485.13 583.52 485.13 582.53 485.13 581.51 C485.79 581.51 486.45 581.51 487.13 581.51 C487.13 580.52 487.13 579.53 487.13 578.51 C487.79 578.51 488.45 578.51 489.13 578.51 C489.13 577.19 489.13 575.87 489.13 574.51 C489.79 574.51 490.45 574.51 491.13 574.51 C491.13 573.52 491.13 572.53 491.13 571.51 C491.79 571.51 492.45 571.51 493.13 571.51 C493.13 570.52 493.13 569.53 493.13 568.51 C494.44 567.15 495.78 565.82 497.13 564.51 C497.46 563.52 497.79 562.53 498.13 561.51 C498.79 561.51 499.45 561.51 500.13 561.51 C500.13 560.52 500.13 559.53 500.13 558.51 C500.79 558.51 501.45 558.51 502.13 558.51 C502.13 557.52 502.13 556.53 502.13 555.51 C502.79 555.51 503.45 555.51 504.13 555.51 C504.13 554.19 504.13 552.87 504.13 551.51 C504.79 551.51 505.45 551.51 506.13 551.51 C506.4 550.95 506.68 550.38 506.96 549.81 C508.17 547.42 509.45 545.09 510.75 542.76 C511.2 541.96 511.65 541.16 512.11 540.34 C512.44 539.73 512.78 539.13 513.13 538.51 C513.79 538.51 514.45 538.51 515.13 538.51 C515.13 537.52 515.13 536.53 515.13 535.51 C515.79 535.51 516.45 535.51 517.13 535.51 C517.13 534.52 517.13 533.53 517.13 532.51 C517.79 532.51 518.45 532.51 519.13 532.51 C519.13 531.19 519.13 529.87 519.13 528.51 C520.5 526.76 520.5 526.76 522.13 525.51 C522.79 525.51 523.45 525.51 524.13 525.51 C524.23 524.97 524.33 524.44 524.44 523.88 C525.31 520.88 526.68 518.27 528.13 515.51 C528.79 515.51 529.45 515.51 530.13 515.51 C530.13 514.52 530.13 513.53 530.13 512.51 C530.79 512.51 531.45 512.51 532.13 512.51 C532.13 511.52 532.13 510.53 532.13 509.51 C533.11 508.49 534.11 507.49 535.13 506.51 C536.3 504.41 536.3 504.41 537.13 502.51 C537.79 502.51 538.45 502.51 539.13 502.51 C539.23 501.97 539.33 501.44 539.44 500.88 C540.31 497.88 541.68 495.27 543.13 492.51 C543.79 492.51 544.45 492.51 545.13 492.51 C545.13 491.52 545.13 490.53 545.13 489.51 C545.79 489.51 546.45 489.51 547.13 489.51 C547.13 488.52 547.13 487.53 547.13 486.51 C548.44 485.15 549.78 483.82 551.13 482.51 C551.46 481.52 551.79 480.53 552.13 479.51 C552.79 479.51 553.45 479.51 554.13 479.51 C554.13 478.52 554.13 477.53 554.13 476.51 C554.79 476.51 555.45 476.51 556.13 476.51 C556.27 475.91 556.42 475.31 556.57 474.7 C557.02 472.95 557.56 471.22 558.13 469.51 C558.79 469.51 559.45 469.51 560.13 469.51 C560.4 468.95 560.68 468.38 560.96 467.81 C562.17 465.42 563.45 463.09 564.75 460.76 C565.2 459.96 565.65 459.16 566.11 458.34 C566.44 457.73 566.78 457.13 567.13 456.51 C567.79 456.51 568.45 456.51 569.13 456.51 C569.13 455.52 569.13 454.53 569.13 453.51 C569.79 453.51 570.45 453.51 571.13 453.51 C571.27 452.91 571.42 452.31 571.57 451.7 C572.83 446.79 572.83 446.79 574.88 444.88 C578.07 441.52 580 437.6 582.13 433.51 C582.79 433.51 583.45 433.51 584.13 433.51 C584.13 432.52 584.13 431.53 584.13 430.51 C584.79 430.51 585.45 430.51 586.13 430.51 C586.27 429.91 586.42 429.31 586.57 428.7 C587.49 425.1 588.27 422.91 591.13 420.51 C591.79 420.51 592.45 420.51 593.13 420.51 C593.23 419.97 593.33 419.44 593.44 418.88 C594.31 415.88 595.68 413.27 597.13 410.51 C597.79 410.51 598.45 410.51 599.13 410.51 C599.13 409.52 599.13 408.53 599.13 407.51 C599.79 407.51 600.45 407.51 601.13 407.51 C601.46 406.19 601.79 404.87 602.13 403.51 C602.79 403.51 603.45 403.51 604.13 403.51 C604.27 402.89 604.42 402.27 604.57 401.63 C605.13 399.51 605.13 399.51 606.13 397.51 C606.79 397.51 607.45 397.51 608.13 397.51 C608.27 396.91 608.42 396.31 608.57 395.7 C609.02 393.95 609.56 392.22 610.13 390.51 C610.79 390.51 611.45 390.51 612.13 390.51 C612.13 389.52 612.13 388.53 612.13 387.51 C612.79 387.51 613.45 387.51 614.13 387.51 C614.13 386.52 614.13 385.53 614.13 384.51 C614.79 384.51 615.45 384.51 616.13 384.51 C616.46 383.19 616.79 381.87 617.13 380.51 C617.79 380.51 618.45 380.51 619.13 380.51 C619.13 379.52 619.13 378.53 619.13 377.51 C619.79 377.51 620.45 377.51 621.13 377.51 C621.13 376.52 621.13 375.53 621.13 374.51 C621.79 374.51 622.45 374.51 623.13 374.51 C623.27 373.91 623.42 373.31 623.57 372.7 C624.02 370.95 624.56 369.22 625.13 367.51 C625.79 367.51 626.45 367.51 627.13 367.51 C627.13 366.52 627.13 365.53 627.13 364.51 C627.79 364.51 628.45 364.51 629.13 364.51 C630.34 362.18 631.29 360.01 632.13 357.51 C632.79 357.51 633.45 357.51 634.13 357.51 C634.13 356.52 634.13 355.53 634.13 354.51 C634.79 354.51 635.45 354.51 636.13 354.51 C636.13 353.52 636.13 352.53 636.13 351.51 C636.79 351.51 637.45 351.51 638.13 351.51 C638.13 350.52 638.13 349.53 638.13 348.51 C638.79 348.51 639.45 348.51 640.13 348.51 C640.13 347.19 640.13 345.87 640.13 344.51 C640.79 343.85 641.45 343.19 642.13 342.51 C644.42 339.8 646 337.89 647.13 334.51 C647.79 334.51 648.45 334.51 649.13 334.51 C649.13 333.52 649.13 332.53 649.13 331.51 C649.79 331.51 650.45 331.51 651.13 331.51 C651.13 330.52 651.13 329.53 651.13 328.51 C651.79 328.51 652.45 328.51 653.13 328.51 C653.13 327.52 653.13 326.53 653.13 325.51 C653.79 325.51 654.45 325.51 655.13 325.51 C655.46 324.19 655.79 322.87 656.13 321.51 C656.79 321.51 657.45 321.51 658.13 321.51 C657.8 320.52 657.47 319.53 657.13 318.51 C658.09 317.61 658.09 317.61 659.07 316.7 C661.33 314.6 661.33 314.6 662.13 311.51 C662.79 311.51 663.45 311.51 664.13 311.51 C664.13 310.52 664.13 309.53 664.13 308.51 C664.79 308.51 665.45 308.51 666.13 308.51 C666.13 307.52 666.13 306.53 666.13 305.51 C666.79 305.51 667.45 305.51 668.13 305.51 C668.13 304.52 668.13 303.53 668.13 302.51 C668.79 302.51 669.45 302.51 670.13 302.51 C670.46 301.19 670.79 299.87 671.13 298.51 C671.79 298.51 672.45 298.51 673.13 298.51 C673.23 297.97 673.33 297.44 673.44 296.88 C674.31 293.88 675.68 291.27 677.13 288.51 C677.79 288.51 678.45 288.51 679.13 288.51 C679.13 287.52 679.13 286.53 679.13 285.51 C679.79 285.51 680.45 285.51 681.13 285.51 C681.13 284.52 681.13 283.53 681.13 282.51 C681.79 282.51 682.45 282.51 683.13 282.51 C684.34 280.18 685.29 278.01 686.13 275.51 C686.79 275.51 687.45 275.51 688.13 275.51 C688.13 274.52 688.13 273.53 688.13 272.51 C688.79 272.51 689.45 272.51 690.13 272.51 C690.23 271.97 690.33 271.44 690.44 270.88 C691.31 267.88 692.68 265.27 694.13 262.51 C694.79 262.51 695.45 262.51 696.13 262.51 C696.13 261.52 696.13 260.53 696.13 259.51 C697.44 258.15 698.78 256.82 700.13 255.51 C700.46 254.52 700.79 253.53 701.13 252.51 C701.79 252.51 702.45 252.51 703.13 252.51 C703.13 251.52 703.13 250.53 703.13 249.51 C703.79 249.51 704.45 249.51 705.13 249.51 C705.23 248.97 705.33 248.44 705.44 247.88 C706.59 243.9 708.19 240.45 711.13 237.51 C713.42 234.8 715 232.89 716.13 229.51 C716.79 229.51 717.45 229.51 718.13 229.51 C718.13 228.52 718.13 227.53 718.13 226.51 C718.79 226.51 719.45 226.51 720.13 226.51 C720.27 225.91 720.42 225.31 720.57 224.7 C721.02 222.95 721.56 221.22 722.13 219.51 C722.79 219.51 723.45 219.51 724.13 219.51 C724.54 218.67 724.54 218.67 724.96 217.81 C726.17 215.42 727.45 213.09 728.75 210.76 C729.2 209.96 729.65 209.16 730.11 208.34 C730.44 207.73 730.78 207.13 731.13 206.51 C731.79 206.51 732.45 206.51 733.13 206.51 C733.13 205.52 733.13 204.53 733.13 203.51 C733.79 203.51 734.45 203.51 735.13 203.51 C735.21 202.97 735.29 202.44 735.38 201.88 C736.4 198.63 738.09 196.22 740.13 193.51 C740.79 193.51 741.45 193.51 742.13 193.51 C742.23 192.97 742.33 192.44 742.44 191.88 C743.31 188.88 744.68 186.27 746.13 183.51 C746.79 183.51 747.45 183.51 748.13 183.51 C748.13 182.52 748.13 181.53 748.13 180.51 C748.79 180.51 749.45 180.51 750.13 180.51 C750.23 179.91 750.33 179.31 750.44 178.7 C751.23 176.19 752.26 175.3 754.13 173.51 C754.46 172.52 754.79 171.53 755.13 170.51 C755.79 170.51 756.45 170.51 757.13 170.51 C757.13 169.52 757.13 168.53 757.13 167.51 C757.79 167.51 758.45 167.51 759.13 167.51 C759.27 166.91 759.42 166.31 759.57 165.7 C760.02 163.95 760.56 162.22 761.13 160.51 C761.79 160.51 762.45 160.51 763.13 160.51 C763.13 159.52 763.13 158.53 763.13 157.51 C764.77 155.82 766.44 154.16 768.13 152.51 C769.42 150.63 770.64 148.7 771.81 146.74 C772.82 145.05 772.82 145.05 773.85 143.33 C774.2 142.74 774.55 142.15 774.91 141.54 C776.79 138.37 778.69 135.22 780.58 132.07 C781.16 131.11 781.16 131.11 781.74 130.13 C785.34 124.13 789.03 118.18 792.75 112.26 C793.36 111.29 793.97 110.32 794.6 109.31 C795.83 107.36 797.05 105.41 798.28 103.45 C800.16 100.46 802.03 97.46 803.91 94.45 C810.5 83.87 817.14 73.32 823.85 62.81 C828.9 54.89 833.87 46.93 838.84 38.96 C843.54 31.43 848.3 23.95 853.13 16.51 C855.35 16.58 855.35 16.58 858.13 17.51 C859.86 19.77 861.23 21.86 862.63 24.32 C863.5 25.79 864.38 27.25 865.26 28.72 C865.72 29.5 866.18 30.28 866.66 31.08 C869.19 35.27 871.88 39.35 874.57 43.45 C875.68 45.16 876.8 46.87 877.92 48.59 C878.46 49.42 879 50.25 879.56 51.11 C887.14 62.72 894.62 74.39 902.09 86.08 C906.75 93.38 911.46 100.65 916.19 107.91 C921.24 115.65 926.21 123.44 931.19 131.23 C935.31 137.67 939.45 144.1 943.63 150.51 C948.5 157.98 953.33 165.49 958.13 173.01 C964.59 183.12 971.11 193.2 977.66 203.25 C985.19 214.82 992.65 226.44 1000.09 238.08 C1004.75 245.38 1009.46 252.65 1014.19 259.91 C1018.54 266.59 1022.84 273.29 1027.13 280.01 C1033.59 290.12 1040.11 300.2 1046.66 310.25 C1054.19 321.82 1061.65 333.44 1069.09 345.08 C1073.75 352.38 1078.46 359.65 1083.19 366.91 C1087.54 373.59 1091.84 380.29 1096.13 387.01 C1102.59 397.12 1109.11 407.2 1115.66 417.25 C1123.19 428.82 1130.65 440.44 1138.09 452.08 C1142.75 459.38 1147.46 466.65 1152.19 473.91 C1156.54 480.59 1160.84 487.29 1165.13 494.01 C1171.57 504.1 1178.08 514.15 1184.61 524.18 C1187.12 528.03 1189.63 531.9 1192.13 535.76 C1192.78 536.76 1192.78 536.76 1193.44 537.78 C1194.67 539.69 1195.9 541.6 1197.13 543.51 C1197.83 544.59 1197.83 544.59 1198.55 545.7 C1199.01 546.41 1199.47 547.13 1199.94 547.87 C1200.36 548.52 1200.78 549.17 1201.21 549.84 C1202.13 551.51 1202.13 551.51 1202.13 553.51 C1202.79 553.51 1203.45 553.51 1204.13 553.51 C1205.7 555.79 1207.14 558.07 1208.57 560.45 C1209.47 561.93 1210.38 563.4 1211.28 564.88 C1211.99 566.03 1211.99 566.03 1212.71 567.21 C1214.94 570.82 1217.25 574.38 1219.57 577.95 C1220.02 578.65 1220.48 579.36 1220.96 580.08 C1221.89 581.52 1222.82 582.95 1223.75 584.38 C1225.55 587.16 1227.35 589.95 1229.15 592.73 C1230.99 595.57 1232.83 598.41 1234.66 601.25 C1235.67 602.8 1236.68 604.36 1237.68 605.91 C1243.58 615.02 1249.49 624.1 1255.5 633.13 C1255.97 633.83 1256.43 634.53 1256.91 635.25 C1259.39 638.96 1261.91 642.63 1264.49 646.27 C1268.48 651.95 1272.22 657.78 1275.94 663.63 C1276.64 664.74 1277.35 665.84 1278.07 666.97 C1281.85 672.9 1285.61 678.85 1289.32 684.82 C1297.14 697.41 1305.29 709.79 1313.5 722.13 C1313.97 722.83 1314.43 723.53 1314.91 724.25 C1317.39 727.96 1319.91 731.63 1322.49 735.27 C1326.49 740.96 1330.22 746.82 1333.94 752.7 C1342.24 765.72 1350.67 778.58 1359.7 791.11 C1362.05 794.38 1364.34 797.69 1366.63 801.01 C1369.67 805.42 1372.75 809.79 1375.88 814.13 C1380.06 819.96 1384.14 825.84 1388.19 831.76 C1388.76 832.59 1389.34 833.43 1389.93 834.29 C1390.46 835.07 1390.99 835.85 1391.54 836.65 C1392.01 837.35 1392.49 838.04 1392.98 838.76 C1394.13 840.51 1394.13 840.51 1395.13 842.51 C1229.47 842.51 1063.81 842.51 893.13 842.51 C892.8 841.52 892.47 840.53 892.13 839.51 C891.47 839.51 890.81 839.51 890.13 839.51 C888.72 837.58 888.72 837.58 887.07 834.85 C883.3 828.75 879.32 822.81 875.28 816.88 C873 813.54 870.73 810.19 868.46 806.84 C867.96 806.11 867.47 805.39 866.96 804.64 C860.86 795.64 854.77 786.63 848.69 777.62 C847.41 775.73 846.13 773.84 844.85 771.95 C832.76 754.06 832.76 754.06 827.45 745.62 C825.75 742.9 823.98 740.23 822.19 737.57 C821.52 736.57 820.85 735.57 820.16 734.54 C819.16 733.04 819.16 733.04 818.13 731.51 C816.79 729.51 815.46 727.51 814.13 725.51 C813.47 724.52 812.81 723.53 812.13 722.51 C806.13 713.51 806.13 713.51 804.13 710.51 C802.79 708.5 801.44 706.48 800.09 704.47 C787.13 685.11 787.13 685.11 787.13 683.51 C921.77 683.01 921.77 683.01 1059.13 682.51 C1049.08 665.43 1049.08 665.43 1038.69 648.57 C1033.62 640.51 1028.62 632.41 1023.69 624.26 C1019.64 617.58 1015.53 610.99 1011.15 604.52 C1004.77 595 998.75 585.22 992.82 575.41 C992.45 574.8 992.08 574.18 991.7 573.55 C989.85 570.49 988.01 567.44 986.18 564.38 C982.55 558.34 978.77 552.47 974.67 546.72 C972.49 543.59 970.58 540.33 968.69 537.01 C964.44 529.66 960.03 522.42 955.57 515.2 C949.82 505.89 944.11 496.55 938.44 487.2 C933.54 479.11 928.62 471.04 923.63 463.01 C918.64 454.98 913.72 446.91 908.82 438.82 C902.57 428.5 896.27 418.22 889.94 407.95 C885.65 400.98 881.38 394 877.13 387.01 C872.33 379.11 867.52 371.22 862.68 363.34 C861.66 361.69 860.65 360.03 859.63 358.37 C858.69 356.84 858.69 356.84 857.72 355.27 C856.9 353.92 856.9 353.92 856.06 352.55 C853.48 348.49 850.81 344.5 848.13 340.51 C847.83 340.97 847.52 341.43 847.21 341.91 C833.46 362.87 819.67 383.81 805.63 404.57 C805.08 405.38 804.53 406.19 803.97 407.03 C800.6 412.01 797.23 416.99 793.85 421.96 C788.48 429.89 783.11 437.82 777.75 445.76 C777.15 446.65 776.55 447.54 775.93 448.46 C766.12 462.98 756.45 477.6 746.83 492.25 C734.64 510.8 722.23 529.21 709.79 547.6 C705.54 553.89 701.32 560.19 697.13 566.51 C692.37 573.68 687.57 580.83 682.74 587.96 C670.18 606.53 657.69 625.14 645.38 643.88 C633.98 661.23 622.44 678.47 610.78 695.65 C606.96 701.27 603.16 706.9 599.37 712.54 C598.24 714.21 597.11 715.89 595.98 717.56 C594.36 719.96 592.75 722.36 591.13 724.76 C585.65 732.91 580.13 741.02 574.36 748.96 C572.11 752.06 570.09 755.23 568.13 758.51 C567.28 759.62 566.4 760.71 565.49 761.78 C565 762.35 564.51 762.93 564 763.52 C563.49 764.11 562.97 764.71 562.44 765.32 C561.91 765.94 561.37 766.56 560.82 767.2 C557.33 771.21 553.72 775.04 549.9 778.74 C548.15 780.48 546.58 782.3 545 784.2 C532.71 798.42 517.41 810.24 501.13 819.51 C500.11 820.09 499.09 820.68 498.04 821.28 C460.67 841.32 416.27 842.57 374.88 842.79 C371.17 842.81 367.47 842.84 363.76 842.86 C356.48 842.91 349.21 842.96 341.93 843 C335.93 843.03 329.94 843.07 323.95 843.11 C322.65 843.12 322.65 843.12 321.33 843.12 C319.58 843.13 317.82 843.15 316.07 843.16 C299.57 843.26 283.08 843.36 266.59 843.45 C252.77 843.54 238.96 843.62 225.15 843.71 C185.89 843.96 146.64 844.19 107.38 844.36 C106.51 844.37 105.65 844.37 104.76 844.38 C103.89 844.38 103.03 844.38 102.14 844.39 C100.84 844.39 100.84 844.39 99.52 844.4 C97.79 844.41 96.05 844.42 94.31 844.42 C81.33 844.48 68.36 844.55 55.38 844.63 C40.55 844.72 25.71 844.79 10.87 844.83 C2.54 844.86 -5.79 844.9 -14.13 844.95 C-19.73 844.99 -25.34 845.01 -30.94 845.02 C-34.13 845.02 -37.31 845.03 -40.5 845.07 C-56.32 845.21 -70.9 843.72 -86.32 840.1 C-88.65 839.56 -91 839.05 -93.34 838.56 C-122.44 832.43 -150.05 816.72 -171.69 796.54 C-173.66 794.71 -175.68 792.98 -177.75 791.26 C-218.25 755.73 -230.44 703.13 -234.87 651.51 C-235.74 638.11 -235.6 624.65 -235.58 611.22 C-235.58 606.03 -235.6 600.84 -235.62 595.66 C-235.66 585.59 -235.67 575.52 -235.68 565.46 C-235.68 553.74 -235.71 542.01 -235.75 530.29 C-235.81 507.25 -235.84 484.22 -235.85 461.18 C-235.87 444.7 -235.89 428.22 -235.91 411.74 C-235.95 386.99 -235.98 362.23 -235.99 337.48 C-236 334.45 -236 331.42 -236 328.39 C-236.01 316.89 -236.01 305.39 -236.01 293.89 C-236 290.45 -236 287.01 -236.01 283.57 C-236.02 266.49 -235.9 249.43 -235.42 232.36 C-235.4 231.63 -235.38 230.9 -235.36 230.14 C-235.06 219.05 -234.33 208.12 -232.75 197.13 C-232.53 195.52 -232.31 193.91 -232.09 192.3 C-224.75 139.72 -210.86 97.83 -173.87 58.51 C-173.18 57.75 -172.48 56.99 -171.77 56.21 C-127.5 9.46 -61.21 -0.25 0 0 Z " fill="#fff" transform="translate(437.8712748289108,72.49176037311554)"/>
<path d="" fill="#000000" transform="translate(0,0)"/>
<path d="" fill="#000000" transform="translate(0,0)"/>
<path d="" fill="#000000" transform="translate(0,0)"/>
</svg>
